<svg xmlns="http://www.w3.org/2000/svg" version="1.1" width="600px" height="600px" viewBox="0 0 200 200" style="overflow:hidden!important;"><g id="svga-group-wrapper"><g id="svga-group-backs-single"></g><g id="svga-group-humanwrap-move" transform="matrix(1,0,0,1,0,-6)"><g id="svga-group-humanwrap" transform="matrix(0.8499994000000002,0,0,0.8499994000000002,15.00005742506903,18.037573294413733)"><g id="svga-group-hair-back-move" transform="matrix(1,-2.856368900253737e-18,2.856368900253737e-18,1,0,0)"><g id="svga-group-hair-back" transform="matrix(0.9599997000000001,0,0,0.9997997000000002,0,0)"></g></g><g id="svga-group-humanbody-back"><path id="SvgjsPath27890" d="m170 180.3-27.3-6.9-18-9.9-1.5-28.2H76.8l-1.5 28.2-18 9.9-27.3 6.9-9.1 19.7-3 20h164.2l-3-20z" fill="#f0c7b1" stroke-width="none" opacity="1" stroke="none"></path><path id="SvgjsPath27891" d="m76.8 135.3-1.5 28.2-18 9.9-27.3 6.9-9.1 19.7-3 20h14.6v-20l2.7-17.7 23.8-6.4 24.7-8.3 3.5-32.3z" fill="#d19271" stroke-width="none" opacity="1" stroke="none"></path></g><g id="svga-group-chinshadow-single"><path id="SvgjsPath28386" d="m122.4 140.2 1-1-.2-3.9H76.8l-.5 9.2 13.8 13.8h14.3z" fill="#c27b55" stroke-width="none" opacity="1"></path></g><g id="svga-group-humanbody-front"><path id="SvgjsPath27892" d="m92.8 168.3 2 7.9 6.9 4.6s-8.5-3-8.7-3.6c-.2-.6-.2-8.9-.2-8.9z" fill="#d19271" stroke-width="none" opacity="1" stroke="none"></path></g><g id="svga-group-clothes-single"><path id="SvgjsPath28056" d="m182.6 199.8-8.6-19.4-2.7-.8-22.8-6.6-15.1-6.2.2-3.4-2.4-4.9.2-3.4-2.7-7-4.9-1.7-6 5.9-15 2.9h-5.6l-15-2.9-6-5.9-4.9 1.7-2.7 7 .2 3.4-2.4 4.9.3 3.4-15.2 6.2-22.8 6.6-2.7.8-8.6 19.4-2.1 20.2h169.4z" fill="#ffffff" stroke-width="none" opacity="1"></path><path id="SvgjsPath28057" d="m106 171.1 16-2.7 8.5-5.8-8.2 7.1-16.3 1.4zm57.4 39.7 4.4-18.3 5.4-10.9-6.4 10-4.7 18.4.1 10.1h1.8l-.6-9.3zm-33-38.1-10.2 7.3s-14.5 2.2-15.3 2.2-14.5-.9-14.5-.9l-.9-4.2.9-5.6h11.3L90.4 169l-1.3-2.4 2.7-8.9 29.4-4 6.1-6-3.6-1.2-5.9 5.8-15.1 2.9h-5.5l-15.1-2.9-5.9-5.8-4.9 1.6-2.8 7 .2 3.4-2.3 4.9.2 3.4-15.1 6.2-22.8 6.6-2.8.8-8.5 19.4-2.1 20.2h10.9l-.2-20.8 7.4-12.2 4 14.5 2.4 18-1.3-18.3-3.5-15.1 10.7-2.7 25.6-6.4 18 6 15.1 1.1 16.2-2.5 10.5-7.8 2.1-7-2.8 5.9zm-57.2-21.8 4.2-1.5-3.7 2-1.3 6.4.4 2.9-1.1-3.4 1.5-6.4zm-4.5 17.8.2-5.6 2.9-2.1-2.2 2.5-.3 5.3.4 3-1-3.1zm3.1 4 1 3.1-1.7-2.9-.1-4.9 4.2-4.4-3.5 4.8.1 4.3zm4.4-16.7 4.2-3.4-3.7 4.1-.6 3.9.3 4.2-1-4.5.8-4.3zm1.5 22.1-1.6-2.9-.1-4.4 2.6-3.5-1.9 3.6v3.9l1 3.3zm3.6-.5.8 2.5-1.5-2.2-.3-4.7 2.5-3.9-1.7 4.3.2 4zm-.3-18.2-.2 5.1.1 2.9-.9-3.5.1-4.8 3.6-5.2-2.7 5.5zm3.9 19.7-.3-4.7 2.2-4.4-1.3 4.4.3 4.8 1.1 2.5-2-2.6zm.2-14.5.1 4.4-.9-4.6 3.2-8.1-2.4 8.3zm10.9-6.8.3 7.5.2 4.2s.3-4.2.3-4.5-.8-7.2-.8-7.2zm-.3 14.3.4 5.1v4.3s.8-3.8.8-4.2-1.2-5.2-1.2-5.2zm10.8-14.9 1.4 6s.7 6.6.7 6.2.3-6.4.3-6.4l-2.4-5.8zm-.3 15.1.6 4-.2 5.3.8-5.3-1.2-4zm12.5-16.6c.3 0 1.3 5.4 1.3 5.4l.1 6.5.5-6.8-1.9-5.1zm2.2-.2 1.8 4.8-.3 5.5.9-5.7-2.4-4.6zm-1.6 16 1.1 4.1-.5 4.1 1-4.4-1.6-3.8zm9-5.8 1.4 2.2.4 2.7-.5 1.9 1-2.2-.5-3.1-1.8-1.5zm-2.9-14.4 2.3 3.7 1 4.6-.7 3.6 1.2-3.9-1.1-5-2.7-3z" fill="#f0f0f0" stroke-width="none" opacity="1"></path></g><g id="svga-group-head" transform="matrix(1,-2.856368900253737e-18,2.856368900253737e-18,1,0,0)"><g id="svga-group-ears-left-move" transform="matrix(1,0,0,1,3,0)"><g id="svga-group-ears-left"><path id="SvgjsPath27907" d="m66.3 102.2-3-7.2-9.2-8-3.6 12.9 4.7 12.7-.4 5.6 5 2.4 6-11.1z" fill="#f0c7b1" stroke-width="none" opacity="1" stroke="none"></path><path id="SvgjsPath27908" d="m52.5 100 1.9-8.4 3.7 10.6-.8 1 .4 5.9s-3.3-2.1-3.3-2.7.3-6.2.3-6.2l.9-.3-.9-4.5-1.6 6.1.4 3-1-4.5z" fill="#d19271" stroke-width="none" opacity="1" stroke="none"></path><path id="SvgjsPath27909" d="m60.4 111.8-.7-12L54.1 87l9.2 8 3 7.2-.5 7.3-6 11.1-5-2.4 4.8.3z" fill="#e1ac8f" stroke-width="none" opacity="1" stroke="none"></path></g></g><g id="svga-group-ears-right-move" transform="matrix(1,0,0,1,-3,0)"><g id="svga-group-ears-right"><path id="SvgjsPath27910" d="m133.7 102.2 3-7.2 9.2-8 3.6 12.9-4.7 12.7.4 5.6-5 2.4-6-11.1z" fill="#f0c7b1" stroke-width="none" opacity="1" stroke="none"></path><path id="SvgjsPath27911" d="m147.5 100-1.9-8.4-3.7 10.6.8 1-.4 5.9s3.3-2.1 3.3-2.7-.3-6.2-.3-6.2l-.9-.3.9-4.5 1.6 6.1-.4 3 1-4.5z" fill="#d19271" stroke-width="none" opacity="1" stroke="none"></path><path id="SvgjsPath27912" d="m139.6 111.8.7-12 5.6-12.8-9.2 8-3 7.2.5 7.3 6 11.1 5-2.4-4.8.3z" fill="#e1ac8f" stroke-width="none" opacity="1" stroke="none"></path></g></g><g id="svga-group-faceshape-wrap" transform="matrix(0.9599997000000001,0,0,0.9997997000000002,4.000030152589019,0.019118638209135952)"><g id="svga-group-faceshape-single"><path id="SvgjsPath28376" d="M138.1 60c-6.9-11.6-19.7-19.5-19.7-19.5-7.2-1.5-18.4-2.3-18.4-2.3s-11.1.8-18.4 2.3c0 0-12.8 7.9-19.7 19.5 0 0-5.1 14.5-5.3 24.8l1.2 18.7 9.1 23.5 8 7.6 18 18.1h14.2l18-18.1 8-7.6 9.1-23.5 1.2-18.7c-.2-10.3-5.3-24.8-5.3-24.8z" fill="#f0c7b1" stroke-width="none" opacity="1"></path><path id="SvgjsPath28377" d="m93.2 150.3-24.4-24.7-7.7-23.7.3-18 4.3-22.1 17.4-18 16.7-4 18.6.7c-7.2-1.5-18.4-2.3-18.4-2.3s-11.1.8-18.4 2.3c0 0-12.8 7.9-19.7 19.5 0 0-5.1 14.5-5.3 24.8l1.2 18.7 9.1 23.5 8 7.6 18 18.1h14.2l18-18.1 8-7.6-27 23.4H93.2v-.1z" fill="#d19271" stroke-width="none" opacity="1"></path></g></g><g id="svga-group-mouth-single-move" transform="matrix(1,0,0,1,0,-1)"><g id="svga-group-mouth-single"><path id="SvgjsPath28088" d="m84.99 125.5 2.75 3.94 12.37-.68 12.45.84 3.02-3.87-3.73 2.46-6.81-2.5-4.93 1.46-4.57-1.35-7.7 1.93z" fill="#e28c7c" stroke-width="none" opacity="1" transform="translate(0 2)" stroke="none"></path><path id="SvgjsPath28089" d="m89.12 131.92 1.15 2.64 10.05 2.86 10.83-3.61-10.89 2.15-9.41-2.31-1.73-1.73z" fill="#d19271" stroke-width="none" opacity="1" transform="translate(0 2)" stroke="none"></path></g></g><g id="svga-group-eyes-left-move" transform="matrix(1,0,0,1,1,-2)"><g id="svga-group-eyes-left" transform="matrix(0.8999996000000001,0,0,0.8999996000000001,8.060032087411486,9.525038481471242)"><g id="svga-group-eyesback-left"><path id="SvgjsPath27951" d="M91.2 95.7 86 91.1l-9 .1-7 3.8s5.8 4.3 7.2 4.9l8.8-.4 5.2-3.8z" fill="#ffffff" stroke-width="none" opacity="1"></path></g><g id="svga-group-eyesiriswrapper-left" transform="matrix(1,0,0,1,0,0)"><g id="svga-group-eyesiriscontrol-left" transform="matrix(1,0,0,1,0,0)"><g id="svga-group-eyesiris-left"><path id="SvgjsPath27995" d="m79.4 99.5-2.6-1.9-1-3 1-3.1 2.6-1.9h3.2l2.6 1.9 1 3.1-1 3-2.6 1.9z" fill="#451700" stroke-width="none" opacity="1"></path><path id="SvgjsPath27996" d="m82.5 89.8 2.5 1.8.9 2.9-.9 3-2.5 1.8h-3.1L77 97.5l-.9-2.9.9-2.9 2.5-1.8h3m.2-.6h-3.4l-2.8 2-1.1 3.2 1.1 3.2 2.8 2h3.4l2.8-2 1.1-3.2-1.1-3.2-2.8-2z" fill="#260d00" stroke-width="none" opacity="1"></path><path id="SvgjsPath27997" d="M81.8 91.9h-1.6l-1.4 1-.6 1.7.6 1.6 1.4 1h1.6l1.4-1 .6-1.6-.6-1.7z" fill="#000000" stroke-width="none" opacity="1"></path><path id="SvgjsPath27998" d="m82.4 99.2.2-.8.9.2.1-.9.8.2s-.2-.8-.1-.8.8.1.8.1l-.5-.8.8-.2-.4-.9.9-.3-.7-.5.5-.7-.7-.3.3-.9-.6-.2.2-.8h-.6l-.2-.6h-.4l-.1-.6 1.3.7.8 1.9.5 1.5-.1.5-.8 2.5-2 1.5-.9.6-2.4-.2.5-.6.5.4.6-.4.8.4z" fill="#260d00" stroke-width="none" opacity="1"></path><path id="SvgjsPath27999" d="m76.9 95.9 1.2-.4v.2l-1.2.3v-.1zm.9-1.8c-.5-.1-1-.1-1.1-.1l-.1-.2s.1 0 1.1.1l.1.2zm.5-2.9.1-.1.6.8-.1.1-.6-.8zm2.2-.7h.2v.9h-.2v-.9zm2.8 1.7.7-.6.1.1-.7.6-.1-.1zm.9 1.7.7-.1v.2l-.7.1v-.2zm-.2 1.7.1-.2.7.3-.1.2-.7-.3zm-1.5 1.6.2-.1.4.8-.2.1-.4-.8zm-3.2 1.5.4-1.2.2.1-.4 1.2-.2-.1zm-1.2-1.3.3-.4.1.1-.3.4-.1-.1z" fill="#0f0500" stroke-width="none" opacity="1"></path><path id="SvgjsPath28000" d="m80.6 92.1-1-.3-.7.7.2.9 1 .3.7-.7z" fill="#ffffff" stroke-width="none" opacity="1"></path><path id="SvgjsPath28001" d="m82.7 96.3-.5-.4-.6.4v.6l.6.4.5-.4z" fill="#ffffff" stroke-width="none" opacity="1"></path></g></g></g><g id="svga-group-eyesfront-left"><path id="SvgjsPath27959" d="M67.1 89.3v11.9l7.9 8.4h11.2l7.9-8.4V89.3l-7.9-8.4H75l-7.9 8.4zm3 5.7 7-3.8 9-.1 5.1 4.6-5.2 3.9-8.8.4c-1.3-.8-7.1-5-7.1-5z" fill="#f0c7b1" stroke-width="none" opacity="1" stroke="none"></path><path id="SvgjsPath27960" d="m91.7 96.1-1.2-.6-4.7-4.1H77l-7.2 4-1 .2 7.9-5 9.6-.1z" fill="#000000" stroke-width="none" opacity="1" stroke="none"></path><path id="SvgjsPath27961" d="m90.8 94-4-4.1-9.8-.1-8.1 3.6 8.1-3.1h9.7z" fill="#e1ac8f" stroke-width="none" opacity="1" stroke="none"></path></g></g></g><g id="svga-group-eyes-right-move" transform="matrix(1,0,0,1,-1,-2)"><g id="svga-group-eyes-right" transform="matrix(0.8999996000000001,0,0,0.8999996000000001,11.94004753111723,9.515038594059746)"><g id="svga-group-eyesback-right"><path id="SvgjsPath27952" d="m108.8 95.7 5.1-4.6 9 .1 7 3.8s-5.8 4.3-7.2 4.9l-8.8-.4-5.1-3.8z" fill="#ffffff" stroke-width="none" opacity="1"></path></g><g id="svga-group-eyesiriswrapper-right" transform="matrix(1,0,0,1,0,0)"><g id="svga-group-eyesiriscontrol-right" transform="matrix(1,0,0,1,0,0)"><g id="svga-group-eyesiris-right"><path id="SvgjsPath28002" d="m117.4 99.5-2.6-1.9-1-3 1-3.1 2.6-1.9h3.2l2.6 1.9 1 3.1-1 3-2.6 1.9z" fill="#451700" stroke-width="none" opacity="1"></path><path id="SvgjsPath28003" d="m120.5 89.8 2.5 1.8.9 2.9-.9 2.9-2.5 1.8h-3.1l-2.5-1.8-.9-2.9.9-2.9 2.5-1.8h3.1m.2-.5h-3.4l-2.8 2-1.1 3.2 1.1 3.2 2.8 2h3.4l2.8-2 1.1-3.2-1.1-3.2-2.8-2z" fill="#260d00" stroke-width="none" opacity="1"></path><path id="SvgjsPath28004" d="M119.8 91.9h-1.6l-1.4 1-.6 1.7.6 1.6 1.4 1h1.6l1.4-1 .6-1.6-.6-1.7z" fill="#000000" stroke-width="none" opacity="1"></path><path id="SvgjsPath28005" d="m120.4 99.2.2-.8.9.2.1-.9.8.2s-.2-.8-.1-.8.8.1.8.1l-.5-.8.8-.2-.4-.9.9-.3-.7-.5.5-.7-.7-.3.3-.9-.6-.2.2-.8h-.6l-.1-.5h-.4l-.1-.6 1.3.7.8 1.9.5 1.5-.1.5-.8 2.5-2 1.5-.9.6-2.4-.2.5-.6.5.4.6-.4.7.3z" fill="#260d00" stroke-width="none" opacity="1"></path><path id="SvgjsPath28006" d="m114.9 95.9 1.2-.4v.2l-1.2.4v-.2zm.9-1.8c-.5-.1-1-.1-1.1-.1l-.1-.2s.1 0 1.1.1l.1.2zm.5-2.9.1-.1.6.8-.1.1-.6-.8zm2.2-.7h.2v.9h-.2v-.9zm2.7 1.7.7-.6.1.1-.7.6-.1-.1zm1 1.7.7-.1v.2l-.7.1v-.2zm-.2 1.7.1-.2.7.3-.1.2-.7-.3zm-1.5 1.6.2-.1.4.8-.2.1-.4-.8zm-3.2 1.5.4-1.2.2.1-.4 1.2-.2-.1zm-1.2-1.3.3-.4.1.1-.3.4-.1-.1z" fill="#0f0500" stroke-width="none" opacity="1"></path><path id="SvgjsPath28007" d="m118.6 92.1-1-.3-.7.7.2.9 1 .3.7-.7z" fill="#ffffff" stroke-width="none" opacity="1"></path><path id="SvgjsPath28008" d="m120.7 96.3-.5-.4-.6.4v.6l.6.4.5-.4z" fill="#ffffff" stroke-width="none" opacity="1"></path></g></g></g><g id="svga-group-eyesfront-right"><path id="SvgjsPath27962" d="M125 80.8h-11.2l-7.9 8.4v11.9l7.9 8.4H125l7.9-8.4V89.3l-7.9-8.5zm-2.3 19.1-8.8-.4-5.1-3.8 5.1-4.6 9 .1 7 3.8s-5.8 4.2-7.2 4.9z" fill="#f0c7b1" stroke-width="none" opacity="1" stroke="none"></path><path id="SvgjsPath27965" d="m108.3 96.1 1.2-.6 4.7-4.1h8.8l7.2 4 1 .2-7.9-5-9.6-.1z" fill="#000000" stroke-width="none" opacity="1" stroke="none"></path><path id="SvgjsPath27966" d="m109.2 94 4-4.1 9.8-.1 8.1 3.6-8.1-3.1h-9.7z" fill="#e1ac8f" stroke-width="none" opacity="1" stroke="none"></path></g></g></g><g id="svga-group-facehighlight-single"></g><g id="svga-group-eyebrows-left-move" transform="matrix(1,0,0,1,0,3)"><g id="svga-group-eyebrows-left-rotate" transform="matrix(0.9914448609181881,0.1305261956808469,-0.1305261956808469,0.9914448609181881,11.486418677960287,-9.64888795129633)"><g id="svga-group-eyebrows-left" transform="matrix(0.8999997000000001,0,0,0.8999997000000001,7.935024033882513,8.280024763705825)"><path id="SvgjsPath28066" d="M74.2 77.6 71 79l-5 9 8.5-4.6 17.3 3.7.9-6z" fill="#2a232b" stroke-width="none" opacity="1" stroke="none"></path><path id="SvgjsPath28067" d="m87.9 84-1.2-4-1.7-.4 2.9 4.4zM73 78.2l5.6 4.6-4.4-5.2-1.2.6zm6.9.5 3.8 5-1.9-4.6-1.9-.4zm-11.7 5.4 2.7-1.5-2.1.5-.6 1zm14.7-4.8 1.7 1.9-.5-1.7-1.2-.2zm-12.4.7 3.8.8L71 79l-.5 1zm16.6.1 3.5 5.2-1.4-4.7-2.1-.5z" fill="#3a353a" stroke-width="none" opacity="1" stroke="none"></path></g></g></g><g id="svga-group-eyebrows-right-move" transform="matrix(1,0,0,1,0,3)"><g id="svga-group-eyebrows-right-rotate" transform="matrix(0.9978589230103035,0.06540313271332765,-0.06540313271332765,0.9978589230103035,5.6737000231781,-7.713606647221297)"><g id="svga-group-eyebrows-right" transform="matrix(0.8999997000000001,0,0,0.8999997000000001,12.065036347588347,8.280024763705825)"><path id="SvgjsPath28068" d="m107.3 81.1.9 6 17.3-3.7L134 88l-5-9-3.2-1.4z" fill="#2a232b" stroke-width="none" opacity="1" stroke="none"></path><path id="SvgjsPath28069" d="m115 79.6-1.7.3-1.2 4 2.9-4.3zm10.8-2-4.4 5.2 5.6-4.6-1.2-.6zm-7.6 1.5-1.9 4.6 3.8-5-1.9.4zm12.9 4-2.1-.5 2.7 1.5-.6-1zm-15.2-3.6-.5 1.7 1.7-1.9-1.2.2zM129 79l-3.2 1.8 3.8-.8-.6-1zm-18.2 1.5-1.4 4.7 3.5-5.2-2.1.5z" fill="#3a353a" stroke-width="none" opacity="1" stroke="none"></path></g></g></g><g id="svga-group-beardwrap" transform="matrix(0.9599997000000001,0,0,0.9997997000000002,0,0)"><g id="svga-group-beard-single-move" transform="matrix(1,0,0,1,0,0)"><g id="svga-group-beard-single" transform="matrix(0.8499994000000002,0,0,0.8499994000000002,0,0)"></g></g></g><g id="svga-group-mustache-single-move" transform="matrix(1,0,0,1,0,0)"><g id="svga-group-mustache-single"></g></g><g id="svga-group-nose-single-move" transform="matrix(1,0,0,1,0,0)"><g id="svga-group-nose-single"><path id="SvgjsPath28103" d="m96.12 99.91-.45 6.4-5.78 8.87 2.98 2.25 1.63-2.02 4.32 3.82h2.41l4.27-3.82 1.57 1.96 3.15-2.19-5.79-8.92-.56-6.46-3.82-1.63z" fill="#f0c7b1" stroke-width="none" opacity="1" transform="translate(0 1)" stroke="none"></path><path id="SvgjsPath28104" d="m104.86 106.44-1.95-15.67 1.1 14.55-.86-.22 6.58 10.06-2.34 1.73-1.28-1.51.28-1.34-5.15 4.47h-2.4l-5.15-4.47.29 1.34-1.29 1.51-2.34-1.73 6.59-10.06-.86.22 1.33-22.81-2.19 23.93-5.82 8.83 3.81 2.79 1.44-2.01 4.19 3.91h2.4l4.2-3.91 1.43 2.01 3.81-2.79z" fill="#d19271" stroke-width="none" opacity="1" transform="translate(0 1)" stroke="none"></path><path id="SvgjsPath28105" d="m96.15 113.17 2.37 1.46 3.1.06 2.55-1.16-.3-1.76-3.59-.6-3.94.66z" fill="#f8d5c3" stroke-width="none" opacity="1" transform="translate(0 1)" stroke="none"></path></g></g><g id="svga-group-hair-front" transform="matrix(0.9599997000000001,0,0,0.9997997000000002,3.9980300155177986,0.011567327292240748)"><path id="SvgjsPath28126" d="m99.5 63.6-9.3-2.3-5-1.4-5.1-1.7-7.3-1.8-6.5 8.8-3 18.8-3 9.3-4.2-5.7-.4-10.7 1.2-15.1 7.3-12.1-1.1-6.2 3.9-9.7.4-6.5 3 7.7-1.2-7.3 3.6-7.2v4.6l1.8 3.6-.4-4 4.5 5.3 6.8 2-5.8-3.9-1.6-4.4 4.6 3 4 .4-2.8-3.6 5.9 3 21.1 2.6 4.9 3.5 10.3 4.8 1.8 3.2 4.6 4.3.8 4.2 8.5 6.8 2.4 19.2-.2 13.7-5.2 6.3-2.3-9.1-2-23.6L125 55l-14.8 6.1z" fill="#2a232b" stroke-width="none" opacity="1" stroke="none"></path><path id="SvgjsPath28127" d="m99.5 63.6-18.2-9L70.4 35l-1.2-7.3 3.6-7.3V25l1.8 3.6 10.5 9.5 11.4 7.7 1 14.1 2 3.7zm-26.7-7.2-8.6-6.7-1.1-6.2 3.9-9.7 5.3 15.7 14.5 10.7-14-3.8zm5.3-32.7 1.6 4.4 5.8 3.8 20.4 5.9 4.9 10.9-4.2 11.9-7.2 2.8 10.7-2.5s9.7-17.1 9.7-17.9-6.7-10-6.7-10l-28.2-4.2-4.9-2-1.9-3.1zm55.2 25.4L125 55l-10.1 4 10.5-9.2 2.4-9.2 4.6 4.2.9 4.3zm1.2 13.3 3.4-2.2 3.9-4.3-3.9 12.8-2.6 4.4-.8-10.7zm-68.2 2.8-3 18.8-6.5-22.2 6-9.7 3.5 13.1z" fill="#221b23" stroke-width="none" opacity="1" stroke="none"></path><path id="SvgjsPath28128" d="m79.3 31 25.5 7.1 6.1 10.8-4.3 11.9-6.7-17.1-15.1-7.5-5.5-5.2zm35.2 26.2 11-7.3 2.4-9.2-1.8-3.2-10.3-4.8 7.2 8.7-.6 5.2-7.9 10.6z" fill="#322c33" stroke-width="none" opacity="1" stroke="none"></path></g><g id="svga-group-glasses-single-move" transform="matrix(1,0,0,1,0,0)"><g id="svga-group-glasses-single"></g></g></g></g></g><rect id="svga-credit-rect" width="200" height="15" x="0" y="185" fill="#ecf0f1" opacity="0.5" style="display: none;"></rect><text id="svga-credit-text" font-family="Avenir Next, Roboto, Helvetica, Arial, sans-serif" font-size="10px" text-anchor="start" font-weight="400" size="10px" anchor="start" weight="400" fill="#333333" x="33.40447998046875" y="182.60824704170227" style="display: none;"><tspan id="SvgjsTspan27871" dy="13" x="33.40447998046875">Created on AvatarMaker.com</tspan></text></g><defs id="SvgjsDefs27818"></defs></svg>